<?xml version="1.0" encoding="UTF-8" standalone="no"?>
<!DOCTYPE svg PUBLIC "-//W3C//DTD SVG 1.1//EN" "http://www.w3.org/Graphics/SVG/1.1/DTD/svg11.dtd">
<svg width="100%" height="100%" viewBox="0 0 129 100" version="1.1" xmlns="http://www.w3.org/2000/svg" xmlns:xlink="http://www.w3.org/1999/xlink" xml:space="preserve" xmlns:serif="http://www.serif.com/" style="fill-rule:evenodd;clip-rule:evenodd;stroke-linejoin:round;stroke-miterlimit:2;">
    <g transform="matrix(1,0,0,1,-9.14967,-4.61024)">
        <g id="Ebene-1" serif:id="Ebene 1" transform="matrix(1,0,0,1,24.1892,-986.123)">
            <g id="logo">
                <g transform="matrix(0.995104,0,0,1.00492,-18.5668,1049.27)">
                    <g id="text2989-3">
                        <g transform="matrix(88.6159,0,0,88.6159,0,0)">
                            <path d="M0.322,-0.06L0.324,-0.06C0.327,-0.032 0.342,0.01 0.4,0.01C0.449,0.01 0.487,-0.03 0.487,-0.035C0.487,-0.042 0.48,-0.05 0.476,-0.05C0.47,-0.05 0.467,-0.034 0.443,-0.034C0.404,-0.034 0.403,-0.075 0.403,-0.121L0.403,-0.343C0.403,-0.375 0.406,-0.439 0.406,-0.439C0.391,-0.433 0.372,-0.429 0.353,-0.429C0.34,-0.429 0.324,-0.43 0.318,-0.431C0.324,-0.399 0.324,-0.35 0.324,-0.322L0.324,-0.101C0.302,-0.068 0.252,-0.035 0.198,-0.035C0.145,-0.035 0.133,-0.084 0.133,-0.149L0.133,-0.343C0.133,-0.375 0.131,-0.439 0.131,-0.439C0.116,-0.433 0.097,-0.429 0.078,-0.429C0.065,-0.429 0.049,-0.43 0.043,-0.431C0.053,-0.399 0.054,-0.35 0.054,-0.322L0.054,-0.112C0.054,-0.093 0.058,-0.07 0.058,-0.059C0.058,-0.038 0.054,-0.02 0.054,0.007C0.054,0.131 0.053,0.186 0.04,0.22L0.051,0.238L0.13,0.207C0.134,0.186 0.136,0.161 0.136,0.136C0.136,0.083 0.128,0.024 0.128,0.005C0.128,0.001 0.129,-0.001 0.129,-0.002C0.141,0.005 0.161,0.01 0.179,0.01C0.24,0.01 0.282,-0.016 0.322,-0.06Z" style="fill-rule:nonzero;"/>
                        </g>
                        <g transform="matrix(88.6159,0,0,88.6159,43.4218,0)">
                            <path d="M0.466,-0.218C0.466,-0.118 0.417,-0.035 0.316,-0.022L0.316,-0.276C0.316,-0.377 0.342,-0.4 0.38,-0.4C0.441,-0.4 0.466,-0.321 0.466,-0.218ZM0.317,0.008C0.383,0.002 0.546,-0.042 0.546,-0.237C0.546,-0.339 0.494,-0.439 0.38,-0.439C0.354,-0.439 0.325,-0.432 0.303,-0.411C0.265,-0.372 0.258,-0.333 0.258,-0.26L0.258,-0.021C0.144,-0.031 0.119,-0.115 0.119,-0.218C0.119,-0.328 0.165,-0.386 0.2,-0.414L0.181,-0.435C0.135,-0.413 0.039,-0.33 0.039,-0.227C0.039,-0.09 0.106,-0.001 0.258,0.008C0.258,0.132 0.247,0.185 0.224,0.22L0.236,0.238L0.305,0.204C0.316,0.162 0.317,0.093 0.317,0.008Z" style="fill-rule:nonzero;"/>
                        </g>
                        <g transform="matrix(88.6159,0,0,88.6159,95.1734,0)">
                            <path d="M0.084,-0.322L0.084,-0.081C0.084,-0.022 0.111,0.011 0.167,0.011C0.21,0.011 0.253,-0.033 0.274,-0.07C0.271,-0.08 0.264,-0.085 0.253,-0.087C0.234,-0.063 0.214,-0.044 0.186,-0.044C0.171,-0.044 0.163,-0.058 0.163,-0.099L0.163,-0.343C0.163,-0.375 0.161,-0.437 0.161,-0.437C0.146,-0.431 0.13,-0.429 0.111,-0.429C0.099,-0.429 0.074,-0.43 0.068,-0.431L0.066,-0.429C0.083,-0.394 0.084,-0.35 0.084,-0.322Z" style="fill-rule:nonzero;"/>
                        </g>
                    </g>
                </g>
                <g id="text3199">
                </g>
                <g id="rect12933" transform="matrix(1,0,0,1,-13.2963,-18.0662)">
                    <rect x="123.275" y="1008.8" width="3.211" height="99.177" style="fill:rgb(153,0,0);"/>
                </g>
            </g>
        </g>
    </g>
</svg>
